
<svg width="2310px" height="2309px" viewBox="0 0 2310 2309" version="1.1" xmlns="http://www.w3.org/2000/svg" xmlns:xlink="http://www.w3.org/1999/xlink">
    <g id="Page-1" stroke="none" stroke-width="1" fill="none" fill-rule="evenodd" opacity="0.040819">
        <g id="01.-Main" transform="translate(517.000000, 1.000000)">
            <g id="BG-LINES" transform="translate(-516.000000, 0.000000)">
                <polyline id="SvgjsPolyline2346" stroke="#E4E4E4" points="0 2002 72.6937245 1927.87615 130.648594 1871.58198 198.57047 1809.13965 259.642435 1756.30383 322.253705 1705.23561 386.211868 1655.93499 441.857779 1614.78069 600.945051 1499.96365 665.172593 1451.04729 709.927914 1414.61939 744.716229 1384.30124 778.465512 1352.8303 810.983351 1320.09131 842.115814 1286.04583 871.632006 1250.57858 899.454961 1213.76643 919.081112 1185.29272 994.968897 1069.55346 1031.64286 1010.87688 1060.23547 960.807735 1098.06391 889.527411 1126.34866 839.266137 1155.86485 789.734958 1186.57401 740.933874 1224.86424 683.294798 1264.69379 626.731652 1313.14344 562.137461 1356.32097 508.033582 1408.58041 446.513475 1462.91791 386.760967 1519.17955 328.852908 1577.24986 272.750875 1636.89797 218.301161 1689.04196 172.766291 1759.58065 113.244339 1893 3"></polyline>
                <polyline id="SvgjsPolyline2347" stroke="#E4E4E4" points="1 2052 65.5705322 1986.11405 131.602458 1921.72638 190.865823 1866.90466 251.590583 1813.73489 304.816084 1769.51639 377.347367 1712.50487 441.956357 1664.09887 590.980068 1555.2622 627.822576 1527.48637 673.164242 1491.9118 717.506007 1455.03103 752.002593 1424.3739 785.46082 1392.64107 817.688399 1359.67889 848.569958 1325.41051 870.721612 1298.82563 891.95028 1271.54923 918.678404 1233.93853 956.443897 1176.005 1033.47473 1061.05995 1064.24092 1012.3466 1092.93039 962.365483 1130.3113 890.832165 1152.61679 850.493829 1181.88312 800.820048 1212.53394 751.991452 1250.99167 694.518927 1291.18 638.198925 1333.06047 583.1467 1376.59462 529.400669 1421.744 476.960831 1476.39244 417.60585 1533.07913 360.133325 1591.57334 304.504837 1651.64432 250.605136 1712.90749 198.011629 1944 7"></polyline>
                <polyline id="SvgjsPolyline2348" stroke="#E4E4E4" points="9 1946 73.5955958 1880.14537 139.843548 1815.94383 199.366794 1761.43019 260.465544 1708.68497 323.101368 1657.78507 377.936535 1615.61196 442.954826 1567.82602 593.165525 1460.72094 630.285897 1433.34879 666.868293 1405.28464 711.674042 1368.99347 746.450374 1338.73801 780.150753 1307.25235 812.544618 1274.42114 843.478262 1240.16751 872.759549 1204.52989 893.548495 1176.92707 919.794058 1138.98281 969.672156 1061.3643 999.760408 1012.19438 1017.05251 982.208029 1055.74838 911.394116 1089.87146 851.190756 1125.33947 791.794721 1162.15243 733.206011 1200.34875 675.501514 1246.65315 609.416217 1287.84677 553.787697 1337.64802 490.316594 1367.00616 454.717418 1396.97913 419.656457 1443.12982 368.14145 1498.73353 309.629627 1547.84309 260.88259 1606.5978 205.561623 1666.7743 151.739973 1736.74966 91.6519459 1843 3"></polyline>
                <polyline id="SvgjsPolyline2349" stroke="#E4E4E4" points="1 2098 73.7901651 2023.98956 131.691433 1967.69398 190.900769 1912.82019 251.572064 1859.52192 313.666846 1807.91443 386.187703 1750.8503 432.200936 1716.03542 589.900136 1599.40942 662.805719 1542.84484 698.469822 1513.52503 741.905391 1475.63599 775.645864 1444.12583 808.309104 1411.53972 839.702748 1377.72394 869.672906 1342.6785 898.10416 1306.32654 918.302277 1278.23639 981.204983 1181.63086 1059.99687 1067.84845 1091.62135 1019.62254 1109.54959 990.033738 1126.55448 959.906955 1163.79596 888.317417 1186.18701 847.969046 1215.6955 798.436617 1246.74289 749.864864 1285.908 692.839167 1319.99473 646.304046 1355.35105 600.768028 1399.40218 547.392897 1445.18458 495.51642 1500.66207 436.838361 1558.21708 380.196934 1608.96245 333.162262 1660.82352 287.318827 1722.41815 235.096507 1909.89515 81.6958441 2007 0"></polyline>
                <polyline id="SvgjsPolyline2350" stroke="#E4E4E4" points="9 1899 73.6760563 1833.08994 140.006527 1768.87284 199.642391 1714.39027 260.932669 1661.67762 323.800412 1610.92725 388.130196 1562.06224 463.040536 1508.07986 595.201305 1415.1209 632.521814 1387.91809 669.303676 1359.98423 714.242185 1323.77794 749.100309 1293.5355 782.842666 1262.02333 815.161457 1229.08754 846.018207 1194.68965 868.025764 1167.98703 889.109928 1140.51489 915.77293 1102.80802 940.935417 1064.10077 964.982137 1024.70095 1046.04844 884.916218 1087.44727 815.543283 1124.03676 756.71288 1149.04535 717.890201 1187.5201 660.329519 1233.95912 594.227078 1282.12951 529.355881 1324.83648 474.834834 1376.35417 412.580032 1421.98523 360.482998 1476.96565 301.267831 1533.71591 243.745625 1583.65613 195.765564 1651.87187 133.549239 1712.7774 80.4518181 1801 6"></polyline>
                <polyline id="SvgjsPolyline2351" stroke="#E4E4E4" points="0 2147 64.6009109 2081.07338 122.280296 2024.53187 189.765176 1961.60541 250.32853 1908.14099 312.237736 1856.33051 375.415889 1805.98165 430.326663 1763.864 587.253043 1646.20382 659.852162 1589.23921 704.111476 1552.23722 738.719107 1521.69712 772.403868 1490.19542 813.08706 1449.27014 844.272381 1415.26831 874.150302 1380.07411 902.52856 1343.68754 922.716344 1315.57064 941.904353 1286.7614 978.588442 1228.06593 1004.08273 1189.60232 1030.57679 1151.79259 1091.64004 1067.82654 1123.78668 1019.90088 1153.28007 970.359753 1169.69947 939.896575 1190.77167 898.817441 1218.84231 848.430114 1242.72157 808.927988 1274.09916 760.502305 1307.05331 713.153603 1341.46868 666.881882 1377.26835 621.648679 1414.37542 577.453993 1460.59583 525.912757 1508.50818 475.986993 1557.99709 427.56131 1617.44531 372.904523 1660.89711 334.940941 1713.80833 290.323155 1892.84514 144.776861 1955.10043 93.3510163 1999.16748 56.1182433 2060 3"></polyline>
                <polyline id="SvgjsPolyline2352" stroke="#E4E4E4" points="9 1849 65.4455028 1791.22354 131.54211 1726.79241 173.837786 1687.5952 208.251087 1656.82212 269.810521 1604.54635 333.023333 1554.30929 397.697267 1505.95709 454.065869 1465.75976 605.522841 1360.24656 670.389028 1312.16362 706.494156 1283.42926 741.676469 1253.54091 775.666812 1222.30623 808.272934 1189.68677 831.76626 1164.26051 861.642387 1129.10226 882.982479 1101.82962 910.090162 1064.51726 929.546174 1035.85983 954.539073 997.047285 1068.8143 809.94696 1105.72689 751.401176 1149.98355 683.854266 1195.66288 617.230548 1236.03603 560.992745 1277.56269 505.601201 1320.35822 451.171316 1364.42263 397.780023 1409.79435 345.504253 1456.51185 294.420941 1512.6113 236.336753 1570.40257 179.906617 1629.61652 125.015136 1690.06089 71.4699775 1769 4"></polyline>
                <polyline id="SvgjsPolyline2353" stroke="#E4E4E4" points="1 2196 65.5826395 2130.11423 131.587635 2065.57464 190.673062 2010.57367 251.10396 1957.03427 312.88033 1905.03336 375.848404 1854.49402 439.739086 1805.10854 577.669152 1700.6067 623.146094 1665.14454 659.089409 1636.22096 703.220879 1599.10493 737.741837 1568.489 771.417071 1536.94999 804.131253 1504.41096 843.457468 1462.21791 873.557591 1427.25576 902.312242 1391.13974 929.529212 1353.86986 955.016289 1315.44611 997.148773 1246.52182 1029.13256 1198.55945 1063.15377 1151.94324 1119.50981 1078.86504 1133.07985 1060.21087 1152.56997 1031.63344 1170.98371 1002.32524 1188.39796 972.401637 1226.22493 901.054233 1249.02107 860.938145 1273.20111 821.629764 1298.57287 783.090627 1331.86368 735.974417 1359.65728 699.127617 1388.37349 663.050062 1425.58539 618.972367 1472.02338 567.663775 1520.26815 518.009059 1570.12749 470.008218 1621.40918 423.545866 1665.0409 385.775973 1709.24926 348.775325 1888.88895 204.003557 1969.1175 138.117787 2047.9237 70.5781422 2125 1"></polyline>
                <polyline id="SvgjsPolyline2354" stroke="#E4E4E4" points="9 1802 73.62401 1736.06423 140.017487 1671.89803 199.756229 1617.54141 261.187506 1565.06977 315.194714 1521.75374 389.012259 1466.31999 454.944135 1419.65716 597.540091 1321.52288 635.083563 1294.67156 672.050036 1267.01239 708.247175 1238.35302 743.405713 1208.46265 777.410252 1177.22587 809.991524 1144.52727 841.034128 1110.40531 863.306332 1083.86174 884.693802 1056.6642 912.005139 1019.46473 938.200943 981.418943 963.550481 942.873061 1087.52857 748.181733 1125.64904 690.362909 1158.07644 642.622949 1197.81252 585.958193 1238.62566 530.024348 1280.55433 474.89835 1323.637 420.695608 1360.48808 376.302445 1413.57208 315.406106 1460.42449 264.434755 1508.5463 214.65594 1566.20784 158.068123 1616.79151 110.78979 1668.29839 64.4731809 1738 4"></polyline>
                <polyline id="SvgjsPolyline2355" stroke="#E4E4E4" points="0 2245 72.8359372 2170.97044 130.704532 2114.59261 189.804373 2059.52231 250.212414 2005.91338 311.890178 1953.7658 374.760712 1903.00268 429.320332 1860.39242 585.034562 1741.06062 648.212908 1690.68207 692.422359 1653.60961 727.089649 1623.15173 769.336801 1583.84877 802.118744 1551.35268 841.672545 1509.31927 872.030471 1474.55422 901.118674 1438.71238 928.821725 1401.8322 961.295856 1354.14563 1014.85509 1265.19479 1046.67512 1217.0852 1060.1034 1198.31822 1081.0346 1170.74462 1147.02172 1090.5235 1167.79901 1062.83452 1180.95796 1043.87526 1199.696 1014.80184 1217.43364 985.036189 1255.9101 914.044729 1279.14989 874.203368 1297.58011 844.860744 1323.28238 806.519203 1350.17743 769.023713 1378.18829 732.335819 1407.23802 696.493977 1444.94495 652.806925 1484.07551 610.427408 1524.51427 569.278512 1574.61062 521.47657 1617.51187 482.86583 1670.07071 437.832786 1714.58797 401.106435 1913.1265 242.817785 2002.12255 169.365083 2045.87029 131.754223 2089.07935 93.4895953 2131.67279 54.5712003 2182 7"></polyline>
                <polyline id="SvgjsPolyline2356" stroke="#E4E4E4" points="8 1752 72.6461531 1686.07758 139.0239 1622.00022 173.00161 1590.74953 207.556518 1560.11387 269.316682 1508.10627 332.84692 1458.2128 397.954831 1410.39502 464.217138 1364.23011 597.780708 1273.32251 663.273418 1226.04288 699.713839 1197.71353 735.192263 1168.19259 769.477812 1137.28785 802.378087 1104.96088 833.816127 1071.17324 856.4038 1044.91959 885.26369 1008.94094 912.853745 971.962879 958.991089 905.656072 1092.55466 703.583676 1164.4735 599.068772 1204.87735 542.871351 1239.27834 496.552683 1274.41044 450.810596 1317.58484 396.727305 1361.95211 343.566543 1407.51226 291.482066 1446.41539 248.891954 1494.24584 198.84473 1543.26918 149.950667 1601.79703 94.2913875 1653.01372 47.7036484 1705 2"></polyline>
                <polyline id="SvgjsPolyline2357" stroke="#E4E4E4" points="1 2291 57.5251783 2233.32513 123.362197 2168.61392 182.234574 2113.32295 251.111408 2051.80308 303.788719 2006.93203 375.35906 1948.56506 429.729432 1905.73186 575.794495 1792.72756 647.788102 1734.97579 691.884667 1697.75627 726.476998 1667.18859 768.688108 1627.85433 801.510421 1595.4026 841.181938 1553.53064 871.734009 1518.92572 908.327232 1474.32382 936.147316 1437.4888 956.079271 1409.22811 975.164696 1380.31378 993.288153 1350.86114 1033.8062 1280.99765 1052.35292 1251.77571 1071.90009 1223.20743 1092.52466 1195.40814 1106.91569 1177.37513 1121.92237 1159.84197 1160.6704 1117.12411 1175.48469 1099.3987 1196.49405 1071.90702 1216.23361 1043.49253 1234.85729 1014.30904 1246.70873 994.507337 1280.26213 933.987172 1297.69298 904.073139 1316.04731 874.735854 1341.82802 836.439739 1368.91701 799.066423 1397.19884 762.615904 1426.59655 727.049733 1457.07166 692.36791 1496.47383 650.226804 1529.02679 617.505927 1570.81463 577.748716 1613.71836 539.145002 1657.54557 501.617885 1711.03094 457.669633 1919.39298 293.257799 1973.10921 249.578696 2026.13283 205.053696 2086.96762 151.877464 2146.5711 97.3554854 2196.70881 49.6006918 2246 1 2189.11385 82.7284815"></polyline>
                <polyline id="SvgjsPolyline2358" stroke="#FF7A7A" points="9 1703 73.5858855 1637.11286 140.018181 1573.0698 173.984433 1541.87426 208.527688 1511.2934 270.382425 1459.42889 334.006639 1409.7158 399.246461 1362.11571 456.138971 1322.69868 590.003701 1232.41601 627.81664 1205.9459 665.052577 1178.70743 701.519176 1150.43167 736.947169 1120.88811 771.182689 1089.92307 804.033401 1057.57499 835.460839 1023.80543 858.079363 997.642664 887.121854 961.798525 915.048806 925.109186 961.978396 859.452558 1098.42041 659.409222 1171.50747 555.757038 1205.58912 509.232652 1247.28722 454.025762 1289.94698 399.587236 1319.02794 363.781515 1356.03308 319.562218 1401.53939 267.428781 1448.19971 216.371052 1488.01293 174.648935 1520.44051 141.83983 1569.98584 93.5482088 1620.56979 46.2938775 1672 0"></polyline>
                <polyline id="SvgjsPolyline2359" stroke="#E4E4E4" points="42 2298 99.1971877 2240.97395 157.509855 2185.06305 217.014932 2130.498 277.750883 2077.27881 330.755405 2032.71159 384.490759 1989.06725 557.005478 1853.82745 611.163945 1810.683 655.706207 1773.99868 699.479172 1736.46839 742.328982 1697.82295 775.793375 1666.02218 816.412225 1625.10801 847.914913 1591.34613 878.379051 1556.69982 907.804638 1521.13064 936.037816 1484.63859 963.001655 1447.1852 982.310995 1418.46068 1000.77411 1389.19782 1018.2756 1359.31971 1046.39339 1308.98451 1064.24106 1279.33712 1083.12729 1250.30498 1103.09053 1222.0419 1131.78529 1185.89592 1147.09428 1168.6689 1178.7893 1135.09929 1193.79058 1117.56464 1208.17642 1099.53011 1228.67817 1071.65156 1248.02597 1042.9655 1266.37369 1013.62573 1306.45404 943.525605 1324.45557 913.955118 1349.91928 875.463497 1369.95945 847.238872 1405.0009 801.441148 1434.42649 765.910421 1472.77592 722.80442 1504.58632 689.388616 1545.66675 648.858977 1579.43886 617.404286 1613.90334 586.718657 1657.86863 549.380631 1729.64399 491.3548 1866.27103 385.070244 1938.70028 327.851929 2001.16715 276.670763 2053.86396 231.757462 2105.6376 185.844379 2164.91189 130.971708 2239.34132 58.5643927 2296 1"></polyline>
                <polyline id="SvgjsPolyline2360" stroke="#E4E4E4" points="9 1657 81.7675031 1582.99036 148.419767 1519.20219 208.533724 1465.32809 270.493792 1413.52903 334.184587 1363.95871 390.106337 1323.18808 456.527836 1277.26829 590.640037 1187.3116 628.446832 1160.8741 665.676717 1133.62964 702.098929 1105.30923 737.482705 1075.68232 771.674201 1044.71047 804.481114 1012.31684 828.21132 987.108992 858.672135 952.486621 880.710073 925.818557 916.17077 880.359883 943.670117 843.316635 977.284704 796.474604 1096.24342 626.360022 1170.2032 523.338294 1239.50925 431.152868 1275.08533 385.771047 1311.3537 340.965626 1348.35282 296.736603 1386.12115 253.160833 1424.6587 210.276741 1464.04238 168.122756 1504.15681 126.737302 1545.07892 86.1203801 1595.11619 38.3176832 1629 7"></polyline>
                <polyline id="SvgjsPolyline2361" stroke="#E4E4E4" points="82 2307 131.596523 2258.7119 182.000432 2211.30806 233.28862 2164.86536 294.226984 2111.88686 347.322177 2067.52025 392.074388 2031.15039 554.93553 1902.39494 608.876555 1859.02792 653.282745 1822.19671 696.958443 1784.55813 739.711415 1745.88152 781.387873 1706.01308 813.875518 1673.21869 853.206715 1631.08194 883.656673 1596.40371 920.258139 1551.84486 948.285941 1515.20588 975.160337 1477.72109 1000.72754 1439.3136 1018.98982 1409.9409 1036.32938 1379.99152 1069.58597 1319.28538 1087.30999 1289.60511 1106.07209 1260.53998 1126.02604 1232.24377 1140.02072 1213.90506 1154.63055 1196.06614 1207.6104 1135.12933 1221.9511 1117.09819 1242.59709 1089.30177 1262.16657 1060.77488 1280.81333 1031.63286 1333.67784 942.2845 1352.55528 913.296262 1372.35544 884.923159 1407.1499 838.941816 1436.4849 803.340876 1466.9733 768.739531 1506.61207 726.833457 1539.4073 694.423531 1573.08679 662.897861 1607.53523 632.179555 1651.48006 594.848548 1732.44927 529.874911 1869.47408 424.263917 1932.98839 374.43798 1995.65686 323.535556 2057.21038 271.249079 2117.49514 217.578548 2176.51116 162.447071 2234.29688 106.085325 2307 32"></polyline>
                <polyline id="SvgjsPolyline2362" stroke="#E4E4E4" points="8 1606 72.5275008 1540.05057 138.939297 1476.02275 198.852197 1421.9104 260.572482 1369.83495 324.100153 1320.06542 389.319844 1272.48652 455.847005 1226.71393 590.054977 1136.89818 618.473227 1117.1441 655.813038 1090.08793 692.422204 1061.99409 727.993085 1032.63199 762.410316 1001.92476 795.558532 969.833988 827.399277 936.436521 857.971007 901.924525 887.465997 866.451726 916.038067 830.248719 978.104447 747.043293 1112.50469 559.6101 1167.07235 485.205618 1236.86819 393.429841 1301.70333 312.415042 1368.76886 233.168119 1407.07004 190.085772 1446.14033 147.656769 1485.97972 105.996408 1518.39729 73.1754226 1559.5826 32.7833198 1593 1"></polyline>
                <polyline id="SvgjsPolyline2363" stroke="#E4E4E4" points="130 2307 171.924562 2267.34479 214.426067 2228.34344 257.542979 2189.99597 310.006375 2144.84056 399.009527 2071.41495 588.362387 1920.21743 641.71043 1876.10053 685.481211 1838.52231 728.444271 1799.98252 778.638357 1752.28857 827.178537 1702.94071 866.179919 1660.43925 896.373296 1625.51496 932.720737 1580.74419 960.683265 1544.01215 994.069063 1496.97207 1013.22359 1468.12492 1037.5706 1428.93126 1054.87891 1398.93023 1082.03372 1348.04386 1098.95739 1317.85051 1110.7655 1298.00367 1129.34308 1268.81036 1142.38201 1249.77124 1162.9212 1221.92413 1228.38505 1141.30596 1242.46248 1122.99764 1262.77089 1094.95821 1282.19465 1066.34184 1300.8107 1037.14852 1348.42777 958.068875 1374.23637 919.798324 1401.62196 882.68166 1430.46913 846.641956 1460.58559 811.679212 1499.89467 769.408524 1532.51121 736.753551 1566.05086 705.060151 1609.12931 666.712675 1653.24625 629.519085 1734.55683 564.901472 1881.21587 452.782222 1935.79472 410.165368 1989.68125 366.702331 2051.49113 314.700538 2111.99327 261.198693 2171.18767 206.273723 2229.15127 150.002552 2302 76"></polyline>
                <polyline id="SvgjsPolyline2364" stroke="#E4E4E4" points="8 1559 72.5497318 1493.05556 138.984408 1429.03259 198.956418 1374.96276 260.736435 1322.96811 324.362929 1273.27921 389.682026 1225.81919 446.730448 1186.58302 590.563253 1090.35641 628.339079 1063.84029 656.267033 1043.39598 692.773407 1015.18898 728.279606 985.752241 762.670226 954.970485 795.791393 922.843708 827.681577 889.525628 858.417712 855.131531 895.462642 810.937998 924.198428 774.814589 986.901684 692.11504 1102.7296 533.940623 1164.66349 450.626207 1234.98346 359.241668 1292.80125 287.340712 1359.81295 208.061358 1413.51463 147.766008 1476.67951 80.5149804 1550 7"></polyline>
                <polyline id="SvgjsPolyline2365" stroke="#E4E4E4" points="186 2298 263.16005 2228.63553 333.246135 2168.64775 422.40117 2095.51724 593.137484 1958.17174 637.426661 1921.27984 689.75094 1876.01039 740.921855 1829.43436 790.631843 1781.32117 838.727121 1731.59395 877.40326 1688.8224 907.390723 1653.77509 943.567906 1608.92837 978.245717 1562.85191 1011.34726 1515.66102 1036.52904 1477.0398 1060.51901 1437.65001 1083.0865 1397.41477 1115.38069 1336.23569 1132.68115 1306.29945 1151.01964 1276.97807 1163.82198 1257.80196 1183.92896 1229.63346 1247.28709 1147.47211 1281.08065 1100.74236 1312.79816 1052.62916 1354.89595 983.764272 1380.69285 945.527349 1408.14292 908.481726 1437.09235 872.550547 1467.38738 837.77224 1498.91266 804.108375 1531.51442 771.482096 1565.07731 739.854972 1599.52445 709.188575 1643.5445 671.989236 1715.74509 614.537778 1871.94902 496.060959 1926.69536 453.788983 1989.74593 403.370045 2051.60468 351.490802 2112.11784 298.112825 2179.66653 235.242868 2237.37317 178.828995 2302 113"></polyline>
                <polyline id="SvgjsPolyline2366" stroke="#E4E4E4" points="9 1511 73.5318693 1445.07067 139.986619 1381.06236 174.021604 1349.94187 208.633453 1319.47453 261.743412 1275.09902 325.429213 1225.49834 381.346578 1184.73435 447.801328 1138.89886 581.979928 1049.07207 619.822217 1022.63887 657.010725 995.398837 693.430082 967.044616 728.84954 937.499363 763.115271 906.647818 796.227273 874.528401 828.185546 841.256374 859.067007 807.023837 896.409346 763.070951 925.444842 727.22476 988.899898 645.158882 1113.11798 478.875586 1175.80388 396.194983 1225.37574 332.494034 1283.25444 260.647971 1335.13376 198.791199 1395.9737 129.480879 1450.73733 70.1598511 1515 4"></polyline>
                <polyline id="SvgjsPolyline2367" stroke="#E4E4E4" points="236 2301 287.958642 2255.28722 340.648013 2210.38182 411.797893 2151.59726 591.018672 2006.30829 635.246976 1969.2844 687.551753 1923.95608 747.125355 1869.43908 796.699515 1821.15039 844.69684 1771.2854 891.001951 1719.8441 928.153726 1675.74607 963.959423 1630.5331 991.611727 1593.5861 1031.26336 1536.8392 1056.41581 1498.20057 1086.29876 1448.83538 1108.72058 1408.54354 1146.25695 1337.07167 1175.67839 1287.47581 1207.83044 1239.57158 1269.36548 1155.95065 1302.59439 1108.81535 1334.16956 1060.56511 1364.51402 1011.50749 1383.70526 982.711133 1410.81913 945.418118 1439.58676 909.316941 1469.73892 874.407603 1501.19871 840.651658 1533.81227 808.010658 1576.00223 768.679983 1610.73106 738.307321 1655.15166 701.475663 1727.83992 644.651872 1866.25528 540.769679 1930.36709 491.712063 1993.55588 441.424162 2055.51396 389.636851 2116.12597 336.234791 2175.31498 281.333321 2233.23483 225.047781 2306 151"></polyline>
                <polyline id="SvgjsPolyline2368" stroke="#E4E4E4" points="9 1463 73.4474051 1397.08718 139.854749 1333.09489 199.805824 1279.0894 234.854144 1249.16743 261.601547 1227.2349 325.241918 1177.64664 381.157824 1136.93126 447.526738 1091.06884 581.417471 1000.95726 619.117474 974.415438 646.979351 953.942516 683.449588 925.710625 718.997501 896.364823 761.924008 857.915676 795.012389 825.804301 826.986296 792.617425 858.037878 758.508691 895.58416 714.835684 932.131257 670.24082 996.07907 588.579595 1121.55359 423.37502 1177.81537 350.3178 1234.96104 277.990384 1278.61772 224.330586 1330.57532 162.604533 1376.07665 110.519575 1422.53873 59.3180641 1470 9"></polyline>
                <polyline id="SvgjsPolyline2370" stroke="#E4E4E4" points="8 1412 72.4495537 1345.99213 130.442623 1289.82585 190.126675 1235.50486 251.655438 1183.29829 315.067343 1133.35989 370.792956 1092.30199 436.971925 1046.13108 570.636533 955.596109 636.200599 908.540991 681.741875 873.211209 717.175679 843.647985 751.571833 812.93145 784.930338 781.100046 817.251193 748.192219 848.649694 714.400185 879.202702 679.839277 916.404353 635.78277 981.430378 554.897175 1157.79234 326.849004 1243.95566 218.591478 1295.41538 156.389532 1340.38019 103.798518 1386.22892 51.976378 1433 1"></polyline>
                <polyline id="SvgjsPolyline2372" stroke="#E4E4E4" points="8 1366 72.456157 1299.95967 130.489773 1243.76577 190.215556 1189.41808 251.825797 1137.18583 306.090497 1094.18461 370.969695 1046.10633 427.618812 1006.29751 570.491499 908.640902 635.832197 861.178021 672.252233 832.831064 716.556227 795.906943 750.937971 765.098378 784.281341 733.21286 816.701711 700.365777 856.006122 658.09535 886.542034 623.517448 923.88507 579.554666 989.341144 498.936999 1153.05824 290.046472 1225.09069 199.928537 1306.23776 102.348852 1343.96538 58.6937707 1390 7"></polyline>
                <polyline id="SvgjsPolyline2374" stroke="#E4E4E4" points="6 1319 62.3141289 1261.19835 128.514003 1196.94442 188.2516 1142.67616 249.874028 1090.48185 304.110997 1047.54348 368.926097 999.420247 425.471022 959.515986 558.486225 867.9551 605.299268 834.311083 632.994742 813.533214 669.268118 785.035657 704.733711 755.539533 739.27612 724.968029 781.127058 685.332612 813.592307 652.571943 853.01989 610.516922 891.370428 567.463334 928.797782 523.641618 1001.84459 434.423524 1145.2456 253.836575 1217.63849 164.119197 1284.03069 84.3874865 1352 6"></polyline>
                <polyline id="SvgjsPolyline2376" stroke="#E4E4E4" points="6 1268 62.3559337 1210.13164 128.604951 1145.84627 188.386895 1091.55145 250.016574 1039.3316 304.25531 996.295365 359.687376 954.796142 425.47446 907.91739 548.695323 822.30603 586.188957 795.331535 623.143667 767.742237 668.451682 732.006795 703.828119 702.342536 738.319182 671.679221 771.924872 640.055276 812.767526 599.286132 852.378357 557.325807 890.911342 514.443276 936.103873 461.99287 1002.2759 381.99159 1205.02638 130.537039 1264.03844 59.6041076 1309 7"></polyline>
                <polyline id="SvgjsPolyline2378" stroke="#E4E4E4" points="6 1220 70.4909273 1153.93977 128.555849 1097.76165 188.275372 1043.39077 249.841889 991.096287 304.020425 947.95334 359.314854 906.310014 415.494301 865.820242 547.592961 772.766827 584.879183 745.542935 621.665177 717.703814 666.762652 681.712906 702.009483 651.87429 736.448254 621.11283 770.040485 589.466978 810.866782 548.746496 850.577186 506.872459 889.325613 464.11403 934.73092 411.858 1015.96024 314.30572 1183.22878 108.280844 1272 2"></polyline>
                <polyline id="SvgjsPolyline2379" stroke="#E4E4E4" points="541 2307 611.152494 2247.10569 671.656617 2193.66981 731.045988 2138.96531 780.786989 2090.87303 837.331821 2033.24685 884.420481 1982.57888 930.20219 1930.68073 974.715389 1877.70617 1024.99455 1814.54419 1066.74008 1759.37838 1107.33243 1703.32837 1153.2679 1636.97562 1191.55386 1579.31101 1228.91727 1521.06975 1356.30651 1315.09175 1375.10354 1286.06722 1401.12723 1247.97013 1421.46184 1219.98358 1449.94568 1183.69331 1472.35604 1157.3598 1503.64597 1123.45301 1536.43505 1091.00705 1570.56953 1059.98349 1605.85719 1030.30544 1642.10585 1001.74223 1707.10742 953.919044 1868.13142 842.049692 1924.33029 801.684462 1979.60661 760.089054 2042.72464 709.767067 2078.0123 680.089012 2112.80025 649.757425 2172.34338 595.245142 2230.34892 539.118251 2303 465"></polyline>
                <polyline id="SvgjsPolyline2380" stroke="#E4E4E4" points="6 1172 70.548827 1105.96232 128.627366 1049.80339 188.400504 995.41263 241.048622 950.439356 295.006204 906.965191 350.08068 864.951696 415.39978 817.36459 547.077846 723.574172 611.780727 675.141415 647.98353 646.504586 683.531601 617.022106 718.3094 586.617098 760.674382 547.448067 793.719068 515.198001 834.004314 473.876402 873.288207 431.593837 926.899165 371.129768 1001.50005 283.105154 1155.24642 95.7549492 1229 7"></polyline>
                <polyline id="SvgjsPolyline2381" stroke="#E4E4E4" points="598 2304 649.998486 2258.36411 709.683371 2204.03932 759.837122 2156.40421 808.914776 2107.61571 856.801039 2057.67382 903.457479 2006.57853 941.389855 1963.13408 985.778807 1910.07803 1021.86645 1865.09572 1064.10321 1810.30958 1105.3023 1754.71606 1145.50217 1698.39207 1210.60596 1603.19874 1343.2732 1400.58613 1375.59451 1352.83569 1395.57915 1324.57757 1423.09645 1287.55367 1444.5415 1260.44895 1474.4416 1225.30893 1497.84668 1199.8574 1530.39858 1167.1395 1564.33403 1135.92101 1599.4993 1106.08659 1635.70224 1077.48246 1672.67381 1049.91638 1710.2603 1023.19612 1853.07359 925.619118 1919.09975 879.175849 1983.85766 830.964044 2038.0852 788.019398 2099.76855 735.962952 2134.24205 705.321159 2168.13906 674.064223 2234.47268 609.935602 2299 544"></polyline>
                <polyline id="SvgjsPolyline2382" stroke="#E4E4E4" points="5 1123 61.3296318 1065.07891 119.082895 1008.61931 178.529125 953.928873 239.745276 901.199911 293.535457 857.624482 348.441457 815.39516 404.155465 774.319645 535.16803 679.745964 608.812098 624.055565 644.864602 595.2104 680.224528 565.55757 714.891876 535.058616 748.828171 503.790457 790.228911 463.561067 830.552309 422.293251 877.686051 371.602681 923.742451 319.873685 976.378336 258.606554 1013.46971 214.415761 1190 1"></polyline>
                <polyline id="SvgjsPolyline2383" stroke="#E4E4E4" points="647 2305 698.247793 2258.43515 748.611341 2210.94671 789.786424 2170.5392 830.231044 2129.36202 861.986991 2095.88151 908.659775 2044.73715 946.60544 2001.28945 991.125279 1948.25941 1027.37934 1903.34934 1062.90295 1857.86203 1097.73453 1811.87444 1138.71739 1756.07359 1172.28027 1709.12391 1218.49171 1642.85559 1348.78336 1452.32456 1395.95593 1386.71046 1423.98267 1350.03583 1453.08588 1314.24632 1483.53468 1279.53434 1507.29397 1254.36624 1540.20328 1222.00175 1574.49663 1191.09962 1609.98179 1161.5829 1646.46653 1133.33612 1674.33948 1112.8245 1712.05447 1086.19403 1855.41758 989.292968 1921.6591 943.074472 1977.40501 902.089711 2040.95535 852.253781 2102.7372 800.224301 2162.75056 746.155203 2229.29964 682.195886 2302 608"></polyline>
                <polyline id="SvgjsPolyline2384" stroke="#E4E4E4" points="6 1075 62.2160785 1017.11649 119.892315 960.693525 179.259261 906.000144 240.27849 853.228526 293.92008 809.566066 339.45395 774.167188 404.085149 725.892496 534.385028 630.611477 598.516699 581.64495 634.521119 552.818502 669.910735 523.261784 704.647122 492.936361 738.653431 461.803797 780.229505 421.869557 820.768099 380.859131 868.223231 330.54737 906.878989 287.768921 944.919945 244.452378 997.370353 183.148132 1145 6"></polyline>
                <polyline id="SvgjsPolyline2385" stroke="#E4E4E4" points="695 2307 737.022545 2267.51675 778.353676 2227.34148 818.954983 2186.43576 858.788053 2144.76113 897.852886 2102.35604 928.54394 2067.94756 966.225948 2024.31223 1003.13972 1980.02332 1032.14065 1944.19237 1074.89302 1889.79237 1144.22638 1797.6776 1205.07072 1713.59788 1331.63771 1534.78912 1386.22092 1460.47449 1421.63663 1414.95534 1451.06009 1379.43194 1473.83831 1353.40452 1505.33601 1319.76495 1538.17813 1287.39406 1572.32625 1256.40721 1607.70355 1226.84283 1644.07955 1198.50869 1671.92813 1177.97894 1719.09786 1144.8776 1853.11674 1054.99265 1919.49239 1009.08905 1975.34319 968.337102 2038.9916 918.742756 2100.83465 866.880141 2135.32848 836.316184 2169.28453 805.098657 2235.54495 740.972014 2300 675"></polyline>
                <polyline id="SvgjsPolyline2386" stroke="#E4E4E4" points="6 1027 70.3826299 960.893368 128.307778 904.637317 187.885734 850.074335 240.275898 804.861709 293.819184 760.995841 339.25218 725.441401 385.184862 690.57958 533.437879 580.64556 588.288036 538.434283 624.303872 509.53668 659.743146 480.023417 694.567422 449.740577 728.738263 418.726639 770.519707 378.939528 819.373631 329.917497 859.079456 288.052529 898.05497 245.533421 974.199442 158.840614 1108 0"></polyline>
                <polyline id="SvgjsPolyline2387" stroke="#E4E4E4" points="751 2298 783.96645 2265.69788 824.510952 2224.66649 864.363043 2182.94291 895.6754 2149.02568 956.876825 2079.9222 1016.23182 2009.28053 1073.97119 1937.25449 1137.21138 1854.88407 1205.95239 1762.20774 1321.4696 1603.6966 1383.97892 1520.78781 1419.90735 1475.6802 1449.60408 1440.34014 1480.30096 1405.88454 1512.19032 1372.50567 1545.34911 1340.39582 1579.70038 1309.59344 1615.24414 1280.13698 1651.78805 1251.94953 1679.71528 1231.49152 1717.49014 1204.99609 1870.89761 1102.24457 1927.7907 1062.78983 1992.87732 1014.95192 2047.30851 972.190059 2109.08694 920.160565 2169.01895 866.054507 2227.25839 810.102612 2300 736"></polyline>
                <polyline id="SvgjsPolyline2388" stroke="#E4E4E4" points="3 978 67.3949589 911.910041 125.3312 855.62971 176.232051 808.735845 237.166982 755.763859 290.643631 711.793648 345.042955 669.054449 520.235688 537.297692 584.015531 487.787927 619.884484 458.743736 655.253655 429.08404 715.65036 375.496548 749.327962 343.951864 790.540736 303.559282 830.830836 262.320379 870.35204 220.312093 909.18124 177.649832 955.045828 125.754981 1060 3"></polyline>
                <polyline id="SvgjsPolyline2389" stroke="#E4E4E4" points="800 2298 856.226461 2240.102 903.299778 2189.38843 956.911055 2129.03159 1016.56033 2058.68571 1081.82456 1978.00502 1138.47407 1905.20031 1208.0072 1813.22432 1318.42182 1665.42498 1381.84004 1583.32278 1418.18341 1538.56421 1448.06573 1503.41048 1478.87106 1469.10198 1518.90646 1427.60905 1552.2116 1395.72097 1586.70896 1365.10073 1622.32161 1335.74832 1658.85727 1307.62534 1696.20057 1280.50126 1734.08228 1254.18399 1868.30277 1164.39791 1925.25994 1125.09489 1990.44725 1077.49328 2044.98154 1034.8862 2106.89987 983.096877 2166.93373 929.117655 2200.46962 897.460089 2233.4671 865.187814 2306 791"></polyline>
                <polyline id="SvgjsPolyline2390" stroke="#E4E4E4" points="3 930 59.3398213 872.072256 117.143015 815.605197 167.898917 768.517283 228.628854 715.202232 272.953621 678.223805 336.148185 627.868566 400.266983 578.6665 510.867098 495.215184 583.650599 438.402174 645.997947 386.97064 706.650865 333.578711 748.896103 294.255497 773.773427 270.154173 806.468238 237.557804 846.595438 196.082001 885.990952 153.914293 932.472268 102.598076 1016 7"></polyline>
                <polyline id="SvgjsPolyline2391" stroke="#E4E4E4" points="840 2307 879.653846 2265.11681 926.307692 2214.01163 972 2162.0611 1024.15385 2100.42748 1082.42308 2028.91866 1132.46154 1965.59434 1321.73077 1718.36823 1378.88462 1645.97563 1415.57692 1601.47955 1453.30769 1557.86723 1484.46154 1523.86115 1516.57692 1490.73885 1549.76923 1458.73087 1584.07692 1427.87563 1619.46154 1398.25 1665 1362.86062 1702.26923 1335.69419 1730.61538 1315.86691 1864.57692 1225.68356 1931 1179.72733 1986.84615 1138.92003 2050.5 1089.19815 2112.26923 1037.24762 2172.19231 983.106871 2230.38462 927.160148 2271 886.237579 2303 853"></polyline>
                <polyline id="SvgjsPolyline2392" stroke="#E4E4E4" points="3 882 67.5020361 815.847114 117.101214 767.473537 176.404578 712.55779 237.286799 659.335311 281.648796 622.391291 335.753489 579.059034 509.774206 445.367861 573.313525 395.377983 635.659076 343.925738 696.42577 290.626293 730.390424 259.300842 763.815957 227.398141 828.972641 161.937955 900.098169 86.1257472 977 0"></polyline>
                <polyline id="SvgjsPolyline2393" stroke="#E4E4E4" points="889 2306 935.559155 2254.77064 973.66 2211.46415 1018.60439 2158.81175 1070.04629 2096.54424 1106.26324 2051.66086 1163.43373 1979.20132 1319.06665 1778.70686 1362.20403 1724.59296 1398.8439 1680.01727 1436.32959 1636.21079 1467.12553 1601.82712 1490.77035 1576.55859 1523.10417 1543.63642 1556.4376 1511.75268 1590.8091 1480.94584 1626.18022 1451.33127 1671.66286 1415.87071 1737.13787 1368.60279 1880.23711 1271.33624 1936.90779 1231.64503 2001.84455 1183.60789 2047.17341 1147.91657 2109.03441 1096.07184 2169.04997 1042.03487 2235.48616 977.998179 2300 912"></polyline>
                <polyline id="SvgjsPolyline2394" stroke="#E4E4E4" points="5 831 61.3287489 773.17339 110.693356 724.677369 169.676944 669.615377 230.199568 616.166081 274.292974 579.035714 337.085677 528.274241 501.223958 401.140174 564.593801 351.108253 626.886317 299.770818 687.716749 246.705496 755.280467 183.887213 804.529646 135.314397 860.666016 77.2957994 931 1"></polyline>
                <polyline id="SvgjsPolyline2395" stroke="#E4E4E4" points="940 2300 1015.7374 2213.11079 1089.40085 2124.45381 1161.52805 2034.52866 1318.45655 1835.38673 1383.97784 1754.95368 1421.30885 1711.06714 1459.56162 1667.94918 1499.00498 1625.94568 1531.49678 1593.24213 1564.94874 1561.49933 1599.32246 1530.79412 1634.65634 1501.20336 1680.01428 1465.65603 1745.26674 1418.23396 1887.75444 1320.3539 1944.21183 1280.42559 1999.70906 1239.22911 2054.01569 1196.4186 2115.65794 1144.38498 2175.45669 1090.23775 2241.70771 1026.09883 2306 960"></polyline>
                <polyline id="SvgjsPolyline2396" stroke="#E4E4E4" points="4 785 60.2706754 727.076923 117.88662 670.538462 168.468729 623.269231 228.813648 569.692308 281.663497 525 335.358943 481.307692 498.713021 353.230769 561.786913 302.807692 615.059561 258.615385 667.29443 213.269231 718.453083 166.653846 776.684008 110.692308 825.382741 61.5384615 881 3"></polyline>
                <polyline id="SvgjsPolyline2397" stroke="#E4E4E4" points="979 2307 1046.52588 2228.1209 1105.32759 2156.97579 1163.32222 2085.17657 1307.21346 1904.79352 1380.50421 1815.67937 1418.09119 1771.89185 1456.48524 1728.87388 1495.99384 1686.81785 1528.46929 1654.03493 1570.28384 1614.32603 1604.75779 1583.65937 1640.11568 1553.99313 1676.28065 1525.32731 1703.83674 1504.43397 1750.49378 1470.53519 1901.99465 1365.14501 1948.84386 1331.55406 2004.22508 1290.03672 2058.41488 1246.98027 2119.9453 1194.68919 2179.63096 1140.28185 2237.58715 1084.06606 2302 1018"></polyline>
                <polyline id="SvgjsPolyline2398" stroke="#E4E4E4" points="4 736 60.2737106 678.198406 109.551646 629.723364 159.905854 582.361367 202.687712 543.75021 254.963836 498.499161 308.124043 454.284396 371.009145 403.736787 524.83933 282.376468 578.422357 238.737416 622.511118 201.584732 674.479736 156.026636 725.410519 109.240352 775.226591 61.3026426 832 4"></polyline>
                <polyline id="SvgjsPolyline2399" stroke="#E4E4E4" points="1027 2302 1108.47797 2204.77921 1297.27306 1971.77993 1341.26117 1918.34502 1385.86449 1865.4483 1431.46754 1813.39731 1470.41855 1770.84159 1502.29454 1737.55049 1543.24501 1696.91689 1576.9282 1665.39414 1611.45733 1634.794 1646.83238 1605.15492 1692.05092 1569.4035 1766.33852 1514.66155 1889.07456 1428.55061 1954.63375 1381.38181 2018.92406 1332.55998 2063.87344 1296.3857 2125.24146 1243.95029 2184.80228 1189.43899 2242.67124 1133.15934 2307 1067"></polyline>
                <polyline id="SvgjsPolyline2400" stroke="#E4E4E4" points="5 687 53.1018281 637.307692 102.163389 588.538462 160.707115 533 211.995257 486.615385 255.490366 448.807692 308.429249 404.346154 380.063735 346.269231 515.19417 238.461538 603.950296 164.923077 656.083004 119.5 698.771937 80.7692308 749.061957 33.3076923 782 1"></polyline>
                <polyline id="SvgjsPolyline2401" stroke="#E4E4E4" points="1068 2307 1141.70267 2218.39995 1302.21155 2022.0275 1376.37534 1933.81166 1429.63493 1873.18249 1468.63817 1830.76512 1508.60207 1789.23144 1549.71878 1748.81199 1583.45754 1717.38318 1617.96484 1686.83806 1662.23255 1649.91497 1698.43063 1621.32935 1772.40228 1566.27129 1903.89891 1472.75328 1950.51066 1438.82707 2014.7219 1389.95488 2068.51946 1346.53855 2129.69498 1293.90105 2180.68739 1247.18047 2238.63505 1191.00819 2303 1125"></polyline>
                <polyline id="SvgjsPolyline2402" stroke="#E4E4E4" points="3 640 59.3553299 582.11873 108.704738 533.576868 159.054992 486.034284 219.067259 431.996391 262.719543 394.254421 315.841371 349.824973 504.654822 197.857813 584.760998 131.751714 663.134941 63.608625 731 1"></polyline>
                <polyline id="SvgjsPolyline2403" stroke="#E4E4E4" points="1115 2300 1298.69521 2077.91801 1350.7236 2016.23284 1388.44706 1972.6384 1426.74734 1929.58168 1473.7767 1878.84313 1513.96122 1837.51483 1555.22247 1797.3004 1589.06207 1765.95849 1623.67075 1735.42318 1658.97161 1705.77128 1694.92619 1676.88756 1768.48887 1621.19422 1908.80786 1520.0628 1964.45093 1478.96496 2019.24802 1436.71484 2072.92993 1393.08199 2125.34286 1347.91277 2184.8698 1293.41012 2242.70476 1237.14064 2307 1171"></polyline>
                <polyline id="SvgjsPolyline2404" stroke="#E4E4E4" points="3 591 59.2714113 533.020411 108.475287 484.325261 167.166561 428.811249 227.163793 374.761173 270.759732 336.968498 332.63908 285.075802 493.771209 154.053488 547.123421 109.981296 608.618663 57.6263044 669 4"></polyline>
                <polyline id="SvgjsPolyline2405" stroke="#E4E4E4" points="1155 2305 1310.14449 2118.58725 1393.1037 2022.33818 1431.65896 1979.35541 1478.94878 1928.70814 1519.351 1887.45854 1560.75365 1847.21033 1603.27216 1808.11758 1638.05654 1777.72922 1673.49506 1748.14967 1709.5877 1719.2634 1783.11973 1663.37809 1950.69271 1540.39959 2014.68212 1491.02332 2068.39782 1447.27025 2129.53984 1394.35059 2188.95033 1339.5437 2246.70625 1283.00364 2303 1225"></polyline>
                <polyline id="SvgjsPolyline2406" stroke="#E4E4E4" points="3 541 59.3461538 483.374441 108.615385 434.976629 167.346154 379.763302 218.692308 333.547986 270.923077 288.289906 315 251.225758 520.269231 83.8244654 573.307692 39.5236201 617 2"></polyline>
                <polyline id="SvgjsPolyline2407" stroke="#E4E4E4" points="1204 2303 1322.8194 2161.70715 1368.0876 2109.28524 1414.04749 2057.51763 1460.92966 2006.59678 1500.89479 1964.99026 1541.78219 1924.26897 1575.17613 1892.43863 1617.86965 1853.64179 1643.96227 1830.93333 1679.31604 1801.29686 1715.24623 1772.31469 1779.22886 1723.04887 1918.22297 1620.01402 1973.36716 1578.21504 2027.70436 1535.33838 2072.204 1498.61995 2133.07396 1445.58221 2192.29152 1390.65851 2249.85668 1334.0413 2306 1276"></polyline>
                <polyline id="SvgjsPolyline2408" stroke="#E4E4E4" points="2 495 58.3390965 437.115385 115.948132 380.461538 174.865588 325.153846 226.317345 278.807692 269.841606 240.923077 322.678751 196.153846 483.114334 64.1538462 554 5"></polyline>
                <polyline id="SvgjsPolyline2409" stroke="#E4E4E4" points="1243 2305 1347.96181 2182.22108 1393.79128 2130.33237 1432.58486 2087.6367 1472.07049 2045.59492 1512.36352 2004.32243 1553.54085 1963.93463 1587.18245 1932.31675 1621.43922 1901.39123 1656.31115 1871.19654 1718.71152 1819.92327 1782.45755 1770.3809 1957.66303 1638.6782 2021.10148 1588.71272 2074.42823 1544.59385 2126.60156 1499.12873 2185.96457 1444.35518 2243.71279 1387.88918 2300 1330"></polyline>
                <polyline id="SvgjsPolyline2410" stroke="#E4E4E4" points="2 447 58.1328698 389.08408 107.215604 340.371554 157.217922 292.621726 216.645964 238.133012 268.487447 192.424104 320.980301 147.446847 498 0"></polyline>
                <polyline id="SvgjsPolyline2411" stroke="#E4E4E4" points="1292 2300 1375.52773 2204.40192 1414.19156 2161.58075 1453.47155 2119.29773 1517.8214 2053.06713 1559.14241 2012.78294 1592.83847 1981.22443 1653.26033 1927.56343 1688.57381 1897.81155 1724.38791 1868.6747 1797.20992 1811.86169 1916.97537 1721.41446 1971.92883 1679.20831 2026.11211 1636.11807 2070.59091 1599.29339 2122.92572 1553.93524 2182.50036 1499.3517 2248.66018 1434.92774 2305 1377"></polyline>
                <polyline id="SvgjsPolyline2412" stroke="#E4E4E4" points="2 397 50.1113861 347.33638 99.105198 298.481237 148.981436 250.550068 199.740099 203.542874 251.304455 157.459654 303.559406 112.146413 436 1"></polyline>
                <polyline id="SvgjsPolyline2413" stroke="#E4E4E4" points="1332 2306 1401.19189 2228.41079 1472.11646 2152.43802 1537.1114 2086.77968 1570.37895 2054.75874 1604.22407 2023.31509 1664.82954 1969.81856 1727.01368 1918.16939 1790.42995 1868.02121 1964.46853 1734.39534 2018.64382 1691.17476 2071.93351 1646.87655 2124.14508 1601.34677 2183.63393 1546.58018 2241.54412 1490.19715 2306 1424"></polyline>
                <polyline id="SvgjsPolyline2414" stroke="#E4E4E4" points="2 351 41.988024 309.637044 90.7473673 260.746567 132.037683 220.689405 182.367438 173.450374 224.960045 134.775818 276.707 89.1114212 373 7"></polyline>
                <polyline id="SvgjsPolyline2415" stroke="#E4E4E4" points="1381 2301 1443.47711 2233.14223 1499.4526 2175.00037 1565.23822 2110.33003 1624.52223 2055.56762 1685.46049 2002.57174 1738.81994 1958.52371 1811.18413 1901.30352 1975.30195 1774.15181 2029.12306 1730.67982 2082.0978 1686.13256 2142.53594 1632.63744 2193.12547 1585.44038 2250.75521 1528.91144 2307 1471"></polyline>
                <polyline id="SvgjsPolyline2416" stroke="#E4E4E4" points="2 301 74.6135132 227.131215 115.761171 186.901845 157.523546 147.285495 234.094303 77.5162737 321 2"></polyline>
                <polyline id="SvgjsPolyline2417" stroke="#E4E4E4" points="1422 2306 1477.52893 2247.3334 1526.16965 2198.08575 1575.92634 2149.91455 1635.41887 2095.28464 1687.5999 2049.80456 1749.78614 1998.25023 1812.9729 1947.92613 1976.55811 1819.9053 2030.27841 1776.23213 2083.1521 1731.48251 2143.52971 1677.85216 2194.09451 1630.56519 2251.70144 1573.9746 2308 1516"></polyline>
                <polyline id="SvgjsPolyline2418" stroke="#E4E4E4" points="2 253 58.1409626 195.291155 123.664283 130.709467 182.217851 75.4195554 259 6"></polyline>
                <polyline id="SvgjsPolyline2419" stroke="#E4E4E4" points="1470 2305 1526.60957 2247.3962 1576.26304 2199.1814 1627.03103 2152.12099 1678.8751 2106.29192 1731.71838 2061.57875 1776.37576 2025.10019 1939.24838 1896.27086 2002.12228 1845.63185 2064.0354 1793.79998 2107.5014 1755.8592 2150.23721 1717.14884 2200.54402 1669.62667 2249.81318 1620.98859 2306 1563"></polyline>
                <polyline id="SvgjsPolyline2420" stroke="#E4E4E4" points="2 203 50.1613264 153.469914 107.379285 96.6830946 157.305887 48.9191977 208 2"></polyline>
                <polyline id="SvgjsPolyline2421" stroke="#E4E4E4" points="1519 2304 1568.50484 2255.66903 1610.54741 2216.21283 1653.35929 2177.525 1705.63363 2132.19071 1785.60298 2066.03337 1992.9694 1900.5632 2054.97546 1848.88979 2098.55665 1811.12402 2158.44712 1756.9918 2208.64433 1709.35237 2257.80298 1660.63721 2306 1611"></polyline>
                <polyline id="SvgjsPolyline2422" stroke="#E4E4E4" points="2 157 82.621448 74.4208821 157 2"></polyline>
                <polyline id="SvgjsPolyline2423" stroke="#E4E4E4" points="1566 2303 1607.94619 2263.4725 1642.0491 2232.39597 1720.28971 2164.2504 1800.33736 2098.17916 1980.15619 1953.85961 2033.40594 1909.68407 2085.88675 1864.58661 2137.40636 1818.45198 2187.96479 1771.24178 2245.636 1714.77392 2302 1657"></polyline>
                <polyline id="SvgjsPolyline2424" stroke="#E4E4E4" points="2 108 58.6465235 50.4812139 108 2"></polyline>
                <polyline id="SvgjsPolyline2425" stroke="#E4E4E4" points="1614 2302 1682.71138 2240.43962 1752.92317 2180.60738 1806.39954 2136.67408 1985.83395 1991.70187 2030.11547 1954.79636 2082.59157 1909.67256 2134.18281 1863.55028 2193.12225 1808.40323 2250.71515 1751.83527 2307 1694"></polyline>
                <line x1="2" y1="57" x2="58" y2="1" id="SvgjsPolyline2426" stroke="#E4E4E4"></line>
                <polyline id="SvgjsPolyline2427" stroke="#E4E4E4" points="1663 2306 1715.13728 2260.37641 1768.00564 2215.59984 1973.70743 2047.62032 2018.03374 2010.65943 2070.63275 1965.57485 2130.92731 1911.75056 2189.91362 1856.50174 2255.74896 1791.70469 2304 1742"></polyline>
                <line x1="2" y1="10" x2="11" y2="1" id="SvgjsPolyline2428" stroke="#E4E4E4"></line>
                <polyline id="SvgjsPolyline2429" stroke="#E4E4E4" points="1718 2298 1797.47299 2231.11658 1976.1717 2084.93401 2029.19219 2040.3835 2072.89464 2002.67509 2133.07694 1948.74552 2191.98861 1893.50904 2249.62962 1836.88876 2306 1779"></polyline>
                <polyline id="SvgjsPolyline2430" stroke="#E4E4E4" points="1767 2304 1980.69961 2127.49559 2042.35632 2075.21366 2094.46221 2029.54872 2145.72085 1982.96048 2196.09372 1935.37199 2245.50382 1886.78327 2302 1829"></polyline>
                <polyline id="SvgjsPolyline2431" stroke="#E4E4E4" points="1814 2307 1991.89809 2159.61538 2044.60863 2114.61538 2105.21805 2061.11538 2156.27176 2014.23077 2206.40072 1966.42308 2255.64347 1917.65385 2304 1868"></polyline>
                <polyline id="SvgjsPolyline2432" stroke="#E4E4E4" points="1873 2304 1996.68751 2200.36268 2049.03307 2155.18251 2109.2842 2101.49738 2168.38403 2046.58076 2209.90742 2006.55743 2250.77841 1965.91837 2307 1908"></polyline>
                <polyline id="SvgjsPolyline2433" stroke="#E4E4E4" points="1919 2307 2033.09277 2210.02933 2084.90079 2164.3102 2127.49849 2125.54499 2177.88658 2078.21224 2219.17949 2038.10234 2259.89676 1997.33932 2300 1956"></polyline>
                <polyline id="SvgjsPolyline2434" stroke="#E4E4E4" points="1978 2304 2073.7019 2220.6339 2150.37872 2150.48155 2225.13382 2078.403 2265.87438 2037.49043 2306 1996"></polyline>
                <polyline id="SvgjsPolyline2435" stroke="#E4E4E4" points="2026 2307 2095.04808 2245.54203 2171.17408 2174.70911 2237.33714 2110.08758 2302 2044"></polyline>
                <polyline id="SvgjsPolyline2436" stroke="#E4E4E4" points="2083 2300 2142.3644 2245.33617 2192.40997 2197.60156 2249.74187 2140.85897 2306 2083"></polyline>
                <polyline id="SvgjsPolyline2437" stroke="#E4E4E4" points="2132 2303 2174.08421 2263.45259 2223.8376 2215.21091 2264.68857 2174.39398 2305 2133"></polyline>
                <polyline id="SvgjsPolyline2438" stroke="#E4E4E4" points="2178 2304 2228.21552 2255.79063 2302 2182"></polyline>
                <line x1="2227" y1="2303" x2="2299" y2="2230" id="SvgjsPolyline2439" stroke="#E4E4E4"></line>
                <line x1="2276" y1="2304" x2="2300" y2="2278" id="SvgjsPolyline2440" stroke="#E4E4E4"></line>
            </g>
        </g>
    </g>
</svg>