<svg xmlns="http://www.w3.org/2000/svg" width="226" height="225">
    <g fill="none" fill-rule="evenodd" stroke="#787474" stroke-opacity=".319">
        <path d="M75.453 91.8c-5.79 9.773-5.52 33.667.472 43.311 5.992 9.644 27.783 21.225 39.498 21.01 11.693-.237 38.69-9.666 38.534-22.581-.135-12.916-27.694-57.26-39.476-63.524-11.783-6.264-33.237 12.033-39.028 21.784" />
        <path d="M57.432 87.775c-6.867 14.272-3.59 47.594 5.947 60.38 9.538 12.787 41.362 26.5 57.655 24.864 16.315-1.658 52.806-17.824 51.034-35.82-1.773-17.996-45.648-76.784-62.839-84.189-17.19-7.426-44.907 20.493-51.797 34.765" />
        <path d="M39.142 85.063c-7.608 18.857-.584 61.328 12.747 76.999 13.308 15.67 55.298 30.782 76.08 27.403 20.781-3.359 66.227-26.951 62.434-49.92-3.793-22.946-65.06-94.973-87.75-103.131-22.689-8.18-55.88 29.792-63.511 48.649" />
        <path d="M21.48 81.253c-8.663 23.27 1.391 74.954 18.223 93.681 16.832 18.707 68.65 35.841 93.92 31.063 25.27-4.8 79.985-35.066 74.532-62.986-5.431-27.94-82.767-113.96-110.775-123.215-28.008-9.278-67.26 38.187-75.9 61.457" />
        <path d="M5.187 73.848c-10.683 27.36.224 88.601 19.749 111.01 19.525 22.409 80.455 43.569 110.393 38.338 29.961-5.21 95.178-40.017 89.298-73.124-5.902-33.086-95.671-136.11-128.594-147.54-32.9-11.43-80.186 43.977-90.846 71.316" />
    </g>
</svg>