<svg width="126px" height="78px" viewBox="0 0 126 78" version="1.1" xmlns="http://www.w3.org/2000/svg" xmlns:xlink="http://www.w3.org/1999/xlink">
    <g id="Page-1" stroke="none" stroke-width="1" fill="none" fill-rule="evenodd">
        <g id="01.-Main" transform="translate(-53.000000, -38.000000)" fill="#FFFFFF">
            <g id="Header" transform="translate(46.000000, 38.000000)">
                <g id="Logo" transform="translate(7.000000, 0.000000)">
                    <path d="M43.3928571,52.1154969 C44.3973214,51.9797795 44.9330357,51.4708391 45,50.5886757 L45,46.3135763 C44.9330357,43.2599339 44.0959821,40.6134439 42.4888393,38.3741061 C40.8816964,36.0669096 38.7388393,34.404371 36.0602679,33.3864902 C38.1361607,31.3507286 39.6763393,28.9078147 40.6808036,26.0577484 L41.7857143,26.0577484 C42.7901786,25.9898897 43.3258929,25.44702 43.3928571,24.4291392 L43.3928571,14.6574835 C43.3258929,13.6396027 42.7901786,13.0967329 41.7857143,13.0288742 L40.6808036,13.0288742 C39.2745536,9.16092719 36.9642857,6.03942607 33.75,3.66437088 C30.5357143,1.28931568 26.7857143,0.0678587199 22.5,0 C18.2142857,0.0678587199 14.4642857,1.28931568 11.25,3.66437088 C8.03571429,6.03942607 5.72544643,9.16092719 4.31919643,13.0288742 L3.21428571,13.0288742 C2.20982143,13.0967329 1.67410714,13.6396027 1.60714286,14.6574835 L1.60714286,24.4291392 C1.67410714,25.44702 2.20982143,25.9898897 3.21428571,26.0577484 L4.31919643,26.0577484 C5.32366071,28.9078147 6.86383929,31.3507286 8.93973214,33.3864902 C6.26116071,34.404371 4.11830357,36.0669096 2.51116071,38.3741061 C0.904017857,40.6134439 0.0669642857,43.2260046 0,46.2117883 L0,50.4868876 C0.133928571,51.5047684 0.636160714,52.0476382 1.50669643,52.1154969 C2.44419643,52.0476382 3.01339286,51.5047684 3.21428571,50.4868876 L3.21428571,46.2117883 C3.28125,43.5652982 4.11830357,41.2920311 5.72544643,39.3919869 C7.39955357,37.4919428 9.50892857,36.3383445 12.0535714,35.9311922 C15.1339286,37.9669538 18.6160714,39.0187639 22.5,39.0866227 C26.3839286,39.0187639 29.8660714,37.9669538 32.9464286,35.9311922 C35.4910714,36.3383445 37.6004464,37.4919428 39.2745536,39.3919869 C40.8816964,41.2920311 41.71875,43.5652982 41.7857143,46.2117883 L41.7857143,50.4868876 C41.8526786,51.5047684 42.3883929,52.0476382 43.3928571,52.1154969 Z M22.5,32.8294041 C18.0164835,32.6957746 14.2795435,31.1477285 11.2891801,28.1852658 L11.1495536,28.0453644 C8.13616071,24.991722 6.5625,21.1577043 6.42857143,16.5433113 C6.5625,11.9289184 8.13616071,8.09490071 11.1495536,5.04125831 C14.1629464,1.98761591 17.9464286,0.392935996 22.5,0.257218556 C27.0535714,0.392935996 30.8370536,1.98761591 33.8504464,5.04125831 C36.8638393,8.09490071 38.4375,11.9289184 38.5714286,16.5433113 C38.4375,21.1577043 36.8638393,24.991722 33.8504464,28.0453644 C30.8370536,31.0990068 27.0535714,32.6936867 22.5,32.8294041 Z M24.1071429,31.5721856 C27.3214286,31.5043268 29.9665179,30.384658 32.0424107,28.2131789 C34.1852679,26.1095586 35.2901786,23.4291392 35.3571429,20.1719206 L35.3571429,18.5433113 C35.2901786,16.7111259 34.6540179,15.1843047 33.4486607,13.9628477 C32.2433036,12.7413908 30.7366071,12.0967329 28.9285714,12.0288742 L16.0714286,12.0288742 C14.2633929,12.0967329 12.7566964,12.7413908 11.5513393,13.9628477 C10.3459821,15.1843047 9.70982143,16.7111259 9.64285714,18.5433113 L9.64285714,20.1719206 C9.70982143,23.4291392 10.8147321,26.1095586 12.9575893,28.2131789 C15.0334821,30.384658 17.6785714,31.5043268 20.8928571,31.5721856 L24.1071429,31.5721856 Z M24.1071429,26.314967 L20.8928571,26.314967 C18.6160714,26.2471083 16.7075893,25.466733 15.1674107,23.9738412 C13.6941964,22.4130906 12.9241071,20.4791171 12.8571429,18.1719206 L12.8571429,16.5433113 C12.8571429,15.5932893 13.1584821,14.812914 13.7611607,14.2021855 C14.3638393,13.591457 15.1339286,13.2860928 16.0714286,13.2860928 L28.9285714,13.2860928 C29.8660714,13.2860928 30.6361607,13.591457 31.2388393,14.2021855 C31.8415179,14.812914 32.1428571,15.5932893 32.1428571,16.5433113 L32.1428571,18.1719206 C32.0774502,20.4254614 31.3412414,22.3229365 29.9342309,23.864346 L29.8325893,23.9738412 C28.2924107,25.466733 26.3839286,26.2471083 24.1071429,26.314967 Z M33.75,55.1154969 C34.7544643,54.9797795 35.2901786,54.4708391 35.3571429,53.5886757 L35.3571429,48.6010598 C35.2901786,47.2438854 34.8214286,46.0902871 33.9508929,45.1402651 C33.0133929,44.2581017 31.875,43.7830907 30.5357143,43.7152319 L14.4642857,43.7152319 C13.125,43.7830907 11.9866071,44.2581017 11.0491071,45.1402651 C10.1785714,46.0902871 9.70982143,47.2438854 9.64285714,48.6010598 L9.64285714,53.4868876 C9.77678571,54.5047684 10.7078476,77.9321413 11.5783833,78 C12.6498119,77.9321413 12.7901786,54.5047684 12.8571429,53.4868876 L12.8571429,48.6010598 C12.9241071,47.583179 13.4598214,47.0403092 14.4642857,46.9724505 L30.5357143,46.9724505 C31.5401786,47.0403092 32.0758929,47.583179 32.1428571,48.6010598 L32.1428571,53.4868876 C32.2098214,54.5047684 32.7455357,55.0476382 33.75,55.1154969 Z" id="" fill-rule="nonzero"></path>
                    <text id="Cosmos" font-family="Eina04-Bold" font-size="20" font-weight="normal" letter-spacing="3.07692308">
                        <tspan x="16.6192308" y="71">COSMOS</tspan>
                    </text>
                </g>
            </g>
        </g>
    </g>
</svg>