<svg xmlns="http://www.w3.org/2000/svg" width="1442" height="172">
    <g fill="none" fill-rule="evenodd" stroke="#DCDCDC" stroke-width="1" opacity=".051">
        <path d="m1 49.099 10.003-.25 10.018-.281 10.032-.186 10.048-.154 10.092-.368 10.123-.352 10.137-.187 10.157-.101 10.157.091 10.179.139 10.162.367 10.091.789 10.082.899 10.119.842 10.03 1.246L162.432 53l10.502-.073 10.936-1.138 10.949-.86 11.026-.784 11.013-.471 11.313-.979 11.731-1.731 11.577-1.033 11.66-.943 11.333.105 11.398.204 12.328-1.657 12.602-1.971 12.76-2.025 12.499-1.154 12.962-1.903 13.424-2.651 13.729-3.069 14.035-3.517 13.302-1.653 12.419.596 13.06-.603 14.131-2.886 13.27-.645 13.394-.705 13.049.428 12.273 2.839 13.217.747 13.216 1.147 13.78-.141 13.962-.413 13.545 1.358 13.135 3.52 14.9-2.859 16.174-9.058 15.244-6.103 15.113-6.838L651.957 1l13.603 1.484 13.331 6.047 13.753 4.842 14.199-.92L721 7.287l13.999-.476 13.999.14 14.137 1.885 14.739 6.62 14.852 5.088 14.354.673 14.144-.335 13.562-2.694 13.568-1.834 14.402 1.973 15.374 5.394 16.066 7.223 14.781 2.663 13.87.023 13.405-.95 13.557-.138 13.675.498 13.44.192 14.345 2.69 14.188 2.498 13.23.48 13.45 1.279 14.977 5.004 14.512 4.172 12.486-.07 11.286-2.406 10.577-3.66 10.454-3.648 11.335-1.435 11.873.018 11.681-.158 11.251-.901 11.486-.132 11.354-.21 11.521.421 11.788 1.34 11.996 2.175 11.626 1.556 10.947.031 10.487-1.055 10.78-.053 10.966.739 10.998 1.132 10.879 1.057 10.712.792 10.666.928 10.472.46 10.299-.036 10.321.278 10.352.718 10.293.736 10.24.783 10.16.607 10.126.738 10.05.423 9.986-.098 9.979-.072 9.973-.089 9.974-.113" />
        <path d="m1 90 9.161-.112 9.17-.079 9.184-.078 9.221-.302 9.303-.777 9.372-.86 9.396-.569 9.446-.512 9.495-.44 9.513-.21 9.527.004 9.542.187 9.676-.11 9.766-.168 9.708.316 9.923-.153 10.184-.674 10.408-.998 10.388-.575 10.535-.643 10.818-1.052 11.093-1.393 11.589-2.249 11.638-1.944 12.214-2.919 11.782-1.479 11.752-1.041 12.143-1.575 11.743-.315 11.912-.347 11.865.103 11.389 1.511 12.347-.248 11.992.919 11.365 2.718 11.666 2.493 12.107 1.968 13.296-.292 13.607-.586 12.774 1.88 14.194-1.084 15.143-3.11 14.886-2.15 14.48-.698 15.209-2.396 16.707-6.796 16.557-6.65 16.521-6.992 16.49-7.552 15.595-4.76 15.289-3.943 15.462-5.449 15.413-6.405L649.818 17l14.073 1.002 14.138 1.296L691.595 32.6l14.134 20.154L721 66.137l15.876 8.267 15.974 2.037 15.774-1.33 16.3 4.512 16.768 6.614 15.869-.51 14.736-5.843 13.4-10.221 12.584-11.093 12.19-10.191 12.909-5.638 14.418.509 14.898 2.304 14.615 1.596 14.354 1.085 15.979 5.722 16.103 5.998 15.364 4.149 14.529 2.294 14.303 2.055 14.799 3.537 14.903 4.069 14.927 4.429 13.764 2.16 13.861 2.769 13.325 1.983 11.902-.746 11.922-.29 12.318.994 11.705.03 10.912-1.379 10.586-1.784 10.054-2.718 10.301-1.875 10.431-1.296 10.455-.966 11.025.764 11.202 1.599 11.204 2.026 11.09 2.166 10.521.971 10.242.502 10.23.82 10.055.613 9.873.322 9.718.061 9.673.178 9.49-.33 9.465-.22 9.501.223 9.42.078 9.42.386 9.396.62 9.312.352 9.25.087 9.222.037 9.199-.09 9.192-.127 9.192.035" />
        <path d="m1 129.954 8.328-.008 8.333.054 8.359-.176 8.413-.509 8.479-.685 8.533-.629 8.584-.531 8.649-.507 8.768-.756 8.95-1.219 8.999-.925 9.028-.591 9.086-.417 9.228-.558 9.46-.962 9.842-1.776 10.16-2.255 10.374-2.339 10.817-3.069 11.055-3.138 10.975-2.357 10.456-.513 10.414-.013 10.344.53 10.434.673 10.948-.166 11.706-1.508 11.912-1.524 11.254.416 10.464 2.612 10.871 2.124 11.268 1.692 12.295-.11 12.802-.743 12.684.027 11.909 2.312 12.635 1.241 13.523-.231 15.461-4.283 15.523-4.048 16.345-5.749 16.47-5.861 14.415-.179 13.972 1.63 13.119 4.905 14.627 1.375 15.626-1.119 15.401.194 17.044-5.431 17.471-7.584 16.522-4.113 16.341-3.547 15.731-.22 16.569-5.739 16.999-11.708 16.68-14.756 15.737-11.593 14.904-3.779L721 36.204l14.89 2.305 15.009 2.344 15.204 3.416 15.246 2.444 15.203 1.531 14.607-2.252 13.006-9.771L837.364 30l15.787 6.332 16.709 9.109 15.52 3.819 14.019-1.3 14.31.161 15.147 3.004 16.042 5.622 17.572 9.666 17.535 9.268 16.247 5.869 15.677 4.612 16.162 6.02 16.518 7.09 15.797 5.693 13.999 1.966 12.329-1.315 12.404-.622 12.079-.85 11.693-1.224 12.393.797 12.957 2.523 12.664 2.349 12.507 2.486 11.919 1.635 10.924-.213 10.669-.397 10.914.608 10.549.138 10.298-.096 10.175-.027 10.176.369 10.516 1.757 10.632 2.629 10.363 2.414 10.092 2.153 9.804 1.774 9.509 1.285 9.407 1.438 9.183 1.085 8.921.445 8.754.071 8.642-.149 8.582-.175 8.556-.034 8.552.318 8.533.648 8.456.435 8.397.217 8.366.155 8.345.048 8.335-.034" />
        <path d="m1 170.154 7.496.521 7.491.325 7.519-.079 7.552-.14 7.601-.243 7.671-.407 7.721-.292 7.779-.229 7.894-.443 8.101-1.026 8.287-1.323 8.432-1.34 8.615-1.482 8.671-1.095 8.72-.732 8.82-.567 9.217-1.333 9.795-2.516 10.161-2.927 10.396-2.918 10.36-2.17 10.485-1.908 10.908-2.411 10.691-1.288 10.859-1.162 10.511.193 9.901 2.1 10.347 1.531 10.614 1.42 11.295.41 13.028-2.916 14.008-4.514 13.616-3.052 13.091-1.3 14-2.773 15.073-4.668 15.286-4.661 16.017-5.916 16.165-5.89 15.875-4.845 16.298-5.579 14.853-1.566 13.176 3.47 13.746 2.774 13.903 3.226 14.545 2.242 16.63-3.737 17.019-4.951 17.108-5.398L574.951 95l14.895 4.448 15.677 2.142 15.827 2.653 15.894 3.97 15.993 5.859 16.475 4.783 16.792 4.861 17.158 2.862L721 131.983l17.84 12.774 18.547 13.271 18.458 3.99 17.436-6.626 16.854-7.562 15.437-13.14 14.798-12.263 16.017-2.941 16.591.77 16.838 2.26 16.888 2.762 16.137.551 15.678-.276 15.517-.045 14.698-1.69 15.595 1.548 16.147 3.522 16.202 4.078 15.904 3.766 13.87-.645 12.846-2.38 13.744.413 14.515 2.781 15.298 5.101 14.622 4.119 13.624 2.462 12.238-.04 11.7-.644 11.058-1.516 11.597.261 11.492.581 11.252.582 11.234 1.093 10.868.779 11.383 2.603 10.949 2.145 10.317 1.128 9.828.391 9.751.698 9.939 1.781 9.734 1.796 9.33 1.172 9.185 1.285 8.966 1.136 8.973 1.769 8.675 1.296 8.385.721 8.107.023 7.987-.116 7.911-.097 7.927.44 7.861.562 7.747.279 7.671.119 7.642.322 7.596.325 7.556.242 7.528.215 7.512.083" />
        <path d="m1 165 6.656-.09 6.673-.191 6.71-.358 6.757-.403 6.849-.765 7.004-1.407 7.116-1.398 7.214-1.244 7.319-1.139 7.389-.836 7.547-.981 7.778-1.359 7.895-1.169 7.993-.916 8.05-.528 8.213-.525 8.402-.575 8.696-.903 9.009-1.216 9.522-2.029 10.092-2.89 10.377-2.91 10.498-2.5 10.62-2.116 11.206-2.875 11.898-3.833 11.811-2.91 11.575-1.688 11.595-1.091 11.317.179 11.698-.05 11.666.672 12.941-1.534 13.56-2.257 12.349 1.177 12.471 1.635 13.093.968 14.2-.862 15.329-2.84 15.913-3.62 14.789-.146 15.332-.763 16.008-1.825 17.392-5.069 17.512-5.057 15.701.976 16.111.599 17.135-2.113 17.356-2.405 18.902-8.558 18.697-8.533 18.454-8.511L618.719 73l16.044 6.017 16.829 2.644 17.555-3.433 17.306-1.056 17.231 1.155L721 81.47l17.6 7.215 17.893 5.771 17.536-1.842 17.143-3.907 18.087 5.318 18.714 8.224 18.547 5.844 18.585 5.45 18.79 6.044 18.587 5.019 16.03-4.149 14.143-9.067 14.239-6.824 13.906-6.289 14.367-3.605 14.907-1.089 15.328.818 16.161 3.591 14.111-.994 13.01-2.912 13.906.009 13.935.732 14.275 2.144 14.807 3.951 14.115 2.961 13.981 3.269 13.637 3.113 13.584 3.627 13.533 4.166 13.32 4.359 12.633 3.474 11.965 2.612 12.332 4.181 12.378 5.051 11.5 3.696 10.795 2.683 10.247 1.997 9.697 1.23 9.308.812 8.995.544 8.578-.099 8.523.28 8.361.323 8.31.728 8.458 1.91 8.223 1.767 8.152 2.268 7.921 2.109 7.584 1.332 7.297.549 7.178.474 7.073.405 7.034.781 6.983 1.141 6.887 1.111 6.777.665 6.705.274 6.673.191 6.656-.115" />
    </g>
</svg>