<svg xmlns="http://www.w3.org/2000/svg" width="44" height="38">
    <path fill="none" stroke="#FFF" d="M36.045 37.187c1.832-.054 3.368-.674 4.608-1.86 1.185-1.239 1.805-2.775 1.859-4.608V12.61c-.054-1.832-.674-3.368-1.86-4.608-1.239-1.185-2.775-1.805-4.607-1.859h-25.87c-.809.054-1.24.485-1.294 1.293.054.809.485 1.24 1.294 1.294h25.87c1.077.054 1.994.431 2.748 1.132.7.754 1.078 1.67 1.132 2.748v18.11c-.054 1.077-.431 1.994-1.132 2.748-.754.7-1.67 1.078-2.748 1.132H7.588c-1.078-.054-1.995-.431-2.75-1.132-.7-.754-1.077-1.67-1.131-2.749V7.436c.054-1.077.431-1.994 1.132-2.748.754-.7 1.67-1.078 2.749-1.132h31.044c.808-.054 1.24-.485 1.293-1.294-.054-.808-.485-1.24-1.293-1.293H7.588c-1.833.054-3.369.674-4.609 1.86C1.794 4.067 1.174 5.603 1.12 7.435V30.72c.054 1.833.674 3.369 1.86 4.609 1.239 1.185 2.775 1.805 4.608 1.859h28.457Zm-3.881-13.582c1.186-.108 1.832-.754 1.94-1.94-.108-1.186-.754-1.832-1.94-1.94-1.186.108-1.832.754-1.94 1.94.108 1.186.754 1.832 1.94 1.94Z" />
</svg>