<svg width="26" height="24" xmlns="http://www.w3.org/2000/svg">
    <path d="M21.938 23.625c1.15-.034 2.115-.423 2.894-1.168.745-.779 1.134-1.743 1.168-2.895V8.188c-.034-1.15-.423-2.115-1.168-2.894-.779-.745-1.743-1.134-2.895-1.168H5.688c-.507.034-.778.305-.812.813.034.507.305.778.813.812h16.25c.677.034 1.252.27 1.726.71.44.475.677 1.05.711 1.728v11.374c-.034.678-.27 1.253-.71 1.727-.475.44-1.05.677-1.727.711H4.063c-.678-.034-1.253-.27-1.727-.71-.44-.475-.677-1.05-.711-1.727V4.938c.034-.678.27-1.253.71-1.727.475-.44 1.05-.677 1.728-.711h19.5c.507-.034.778-.305.812-.813-.034-.507-.305-.778-.813-.812h-19.5c-1.15.034-2.115.423-2.894 1.168C.423 2.822.034 3.786 0 4.937v14.625c.034 1.152.423 2.116 1.168 2.895.779.745 1.743 1.134 2.894 1.168h17.875ZM19.5 15.094c.745-.068 1.151-.474 1.219-1.219-.068-.745-.474-1.151-1.219-1.219-.745.068-1.151.474-1.219 1.219.068.745.474 1.151 1.219 1.219Z" fill="#FFF" />
</svg>