
<svg width="40px" height="17px" viewBox="0 0 40 17" version="1.1" xmlns="http://www.w3.org/2000/svg" xmlns:xlink="http://www.w3.org/1999/xlink">
    <g id="Page-1" stroke="none" stroke-width="1" fill="none" fill-rule="evenodd">
        <g id="01.-Main-Copy" transform="translate(-1268.000000, -1511.000000)" fill="#FFFFFF" fill-rule="nonzero">
            <g id="Group" transform="translate(353.500000, 1174.000000)">
                <g id="Arrows" transform="translate(821.500000, 338.000000)">
                    <g id="back-copy-2" transform="translate(112.706079, 7.500000) scale(-1, 1) translate(-112.706079, -7.500000) translate(93.412157, 0.000000)">
                        <path d="M37.8641958,8.18181818 L0.762817114,8.18181818 C0.363364002,8.18181818 0.0391701726,7.87636364 0.0391701726,7.5 C0.0391701726,7.12363636 0.363364002,6.81818182 0.762817114,6.81818182 L37.8641958,6.81818182 C38.2636489,6.81818182 38.5878427,7.12363636 38.5878427,7.5 C38.5878427,7.87636364 38.2636489,8.18181818 37.8641958,8.18181818 Z" id="Path"></path>
                        <path d="M9.20433736,15 C9.11396725,15 9.02359713,14.9718069 8.95440751,14.9159962 L0.103078412,7.70202626 C0.0374188755,7.64794162 0,7.57486982 0,7.49834582 C0,7.42182181 0.0374188755,7.34875001 0.103078412,7.29466538 L8.95511353,0.0841476396 C9.09278675,-0.0280492132 9.31659399,-0.0280492132 9.45426721,0.0841476396 C9.59194043,0.196344492 9.59194043,0.378736299 9.45426721,0.490933152 L0.852161939,7.49834582 L9.45426721,14.5086353 C9.59194043,14.6208322 9.59194043,14.803224 9.45426721,14.9154208 C9.38507759,14.9718069 9.29470747,15 9.20433736,15 Z" id="Path" stroke="#FFFFFF" stroke-width="0.681818182"></path>
                    </g>
                </g>
            </g>
        </g>
    </g>
</svg>