<svg xmlns="http://www.w3.org/2000/svg" width="115" height="17">
    <g fill="#FFF">
        <path d="M3.088 9.182h108.754c1.17 0 2.121-.306 2.121-.682 0-.376-.95-.682-2.121-.682H3.088c-1.171 0-2.122.306-2.122.682 0 .376.95.682 2.122.682Z" />
        <path stroke="#FFF" stroke-width=".682" d="M103.888 16c.1 0 .199-.028.275-.084l9.724-7.214a.258.258 0 0 0 .113-.204.258.258 0 0 0-.113-.203l-9.725-7.21a.489.489 0 0 0-.549 0c-.15.111-.15.294 0 .406l9.45 7.007-9.45 7.01c-.15.113-.15.295 0 .407a.464.464 0 0 0 .275.085Z" />
    </g>
</svg>