<svg width="40" height="40" xmlns="http://www.w3.org/2000/svg">
    <path d="M20 2.58c9.566 0 17.42 7.749 17.42 17.42 0 9.62-7.792 17.42-17.42 17.42-9.616 0-17.42-7.788-17.42-17.42 0-9.613 7.791-17.42 17.42-17.42M20 0C8.955 0 0 8.958 0 20c0 11.048 8.955 20 20 20s20-8.952 20-20C40 8.958 31.045 0 20 0Zm-2.903 27.742h.968v-9.677h-.968a.968.968 0 0 1-.968-.968v-.645c0-.535.433-.968.968-.968h3.87c.535 0 .968.433.968.968v11.29h.968c.535 0 .968.433.968.968v.645a.968.968 0 0 1-.968.968h-5.806a.968.968 0 0 1-.968-.968v-.645c0-.535.433-.968.968-.968ZM20 8.387a2.58 2.58 0 1 0 0 5.161 2.58 2.58 0 0 0 0-5.16Z" fill="#FFF" />
</svg>